M48
;DRILL file {KiCad 4.0.7} date 12/07/17 21:08:02
;FORMAT={3:3/ absolute / metric / suppress leading zeros}
FMAT,2
METRIC,TZ
T1C0.700
T2C0.800
T3C0.900
T4C1.000
T5C1.020
T6C1.100
T7C1.118
T8C1.143
%
G90
G05
M71
T1
X5470Y65460
X5470Y62920
X10550Y65460
X10550Y62920
T2
X4475Y29575
X6935Y27245
X6935Y24745
X6975Y29575
X10660Y4720
X10985Y32155
X10985Y27275
X18280Y4720
X19710Y60850
X19710Y55850
X25340Y61380
X27840Y61380
T3
X6740Y70540
X6740Y68000
T4
X6155Y59125
X6155Y56585
X6155Y54045
X6155Y51505
X6155Y48965
X6155Y46425
X6155Y43885
X6155Y41345
X6165Y37645
X6165Y35105
X6165Y32565
X11050Y76060
X11050Y68560
X11460Y18390
X11460Y15850
X11460Y13310
X11460Y10770
X11460Y8230
X22960Y4800
X25325Y36135
X25325Y33595
X25325Y31055
X25500Y4800
X27250Y21730
X27250Y19190
X27250Y16650
X27250Y14110
X27250Y11570
X27250Y9030
X28040Y4800
X29075Y53875
X29075Y51335
X29075Y48795
X29075Y46255
X29075Y43715
X29075Y41175
X29075Y38635
X29075Y36095
X29075Y33555
X29075Y31015
T6
X9750Y50030
X9750Y45530
X15190Y73060
X15190Y65440
X16250Y50030
X16250Y45530
T7
X15285Y40985
X15285Y38445
X15285Y35905
X15285Y33365
X15285Y30825
X15285Y28285
X15285Y25745
X15285Y23205
X15285Y20665
X15285Y18125
X15285Y15585
X15285Y13045
X15285Y10505
X15285Y7965
X22905Y40985
X22905Y38445
X22905Y35905
X22905Y33365
X22905Y30825
X22905Y28285
X22905Y25745
X22905Y23205
X22905Y20665
X22905Y18125
X22905Y15585
X22905Y13045
X22905Y10505
X22905Y7965
T8
X15630Y60620
X15630Y58080
X15630Y55540
T5
X22435Y73095G85X20915Y73095
G05
X22435Y66995G85X20915Y66995
G05
X26755Y71565G85X26755Y70045
G05
T0
M30
