G04 #@! TF.FileFunction,Copper,L1,Top,Signal*
%FSLAX46Y46*%
G04 Gerber Fmt 4.6, Leading zero omitted, Abs format (unit mm)*
G04 Created by KiCad (PCBNEW 4.0.7) date 12/07/17 21:08:05*
%MOMM*%
%LPD*%
G01*
G04 APERTURE LIST*
%ADD10C,0.100000*%
%ADD11O,2.540000X2.032000*%
%ADD12O,3.000000X2.000000*%
%ADD13C,2.000000*%
%ADD14R,1.700000X1.700000*%
%ADD15O,1.700000X1.700000*%
%ADD16C,1.600000*%
%ADD17C,1.500000*%
%ADD18C,4.800000*%
%ADD19R,4.800000X4.800000*%
%ADD20R,1.676400X1.676400*%
%ADD21C,1.676400*%
%ADD22R,1.800000X1.800000*%
%ADD23C,1.800000*%
%ADD24R,2.200000X2.200000*%
%ADD25O,2.200000X2.200000*%
%ADD26C,1.400000*%
%ADD27O,1.400000X1.400000*%
%ADD28O,1.600000X1.600000*%
%ADD29C,2.000000*%
%ADD30C,0.600000*%
G04 APERTURE END LIST*
D10*
D11*
X15630000Y58080000D03*
X15630000Y55540000D03*
X15630000Y60620000D03*
D12*
X18410000Y50060000D03*
D13*
X9750000Y50030000D03*
X9750000Y45530000D03*
X16250000Y50030000D03*
X16250000Y45530000D03*
D14*
X28040000Y4800000D03*
D15*
X25500000Y4800000D03*
X22960000Y4800000D03*
D16*
X27840000Y61380000D03*
X25340000Y61380000D03*
D17*
X10985000Y27275000D03*
X10985000Y32155000D03*
D16*
X4475000Y29575000D03*
X6975000Y29575000D03*
X6935000Y24745000D03*
X6935000Y27245000D03*
D18*
X21675000Y73095000D03*
D19*
X21675000Y66995000D03*
D18*
X26755000Y70805000D03*
D14*
X6155000Y59125000D03*
D15*
X6155000Y56585000D03*
X6155000Y54045000D03*
X6155000Y51505000D03*
X6155000Y48965000D03*
X6155000Y46425000D03*
X6155000Y43885000D03*
X6155000Y41345000D03*
D14*
X27250000Y21730000D03*
D15*
X27250000Y19190000D03*
X27250000Y16650000D03*
X27250000Y14110000D03*
X27250000Y11570000D03*
X27250000Y9030000D03*
D14*
X29075000Y53875000D03*
D15*
X29075000Y51335000D03*
X29075000Y48795000D03*
X29075000Y46255000D03*
X29075000Y43715000D03*
X29075000Y41175000D03*
X29075000Y38635000D03*
X29075000Y36095000D03*
X29075000Y33555000D03*
X29075000Y31015000D03*
D20*
X15285000Y7965000D03*
D21*
X15285000Y10505000D03*
X15285000Y13045000D03*
X15285000Y15585000D03*
X15285000Y18125000D03*
X15285000Y20665000D03*
X15285000Y23205000D03*
X15285000Y25745000D03*
X15285000Y28285000D03*
X15285000Y30825000D03*
X15285000Y33365000D03*
X15285000Y35905000D03*
X15285000Y38445000D03*
X15285000Y40985000D03*
X22905000Y40985000D03*
X22905000Y38445000D03*
X22905000Y35905000D03*
X22905000Y33365000D03*
X22905000Y30825000D03*
X22905000Y28285000D03*
X22905000Y25745000D03*
X22905000Y23205000D03*
X22905000Y20665000D03*
X22905000Y18125000D03*
X22905000Y15585000D03*
X22905000Y13045000D03*
X22905000Y10505000D03*
X22905000Y7965000D03*
D14*
X11460000Y8230000D03*
D15*
X11460000Y10770000D03*
X11460000Y13310000D03*
X11460000Y15850000D03*
X11460000Y18390000D03*
D14*
X6165000Y32565000D03*
D15*
X6165000Y35105000D03*
X6165000Y37645000D03*
D22*
X6740000Y70540000D03*
D23*
X6740000Y68000000D03*
D24*
X15190000Y65440000D03*
D25*
X15190000Y73060000D03*
D26*
X5470000Y65460000D03*
D27*
X10550000Y65460000D03*
D26*
X5470000Y62920000D03*
D27*
X10550000Y62920000D03*
D14*
X25325000Y31055000D03*
D15*
X25325000Y33595000D03*
X25325000Y36135000D03*
D13*
X11050000Y68560000D03*
X11050000Y76060000D03*
D16*
X19710000Y55850000D03*
X19710000Y60850000D03*
X18280000Y4720000D03*
D28*
X10660000Y4720000D03*
D29*
X17246447Y6786447D02*
X17953553Y7493553D01*
D30*
X15630000Y58080000D02*
X16940000Y58080000D01*
X16940000Y58080000D02*
X19710000Y60850000D01*
X26755000Y63170000D02*
X20580000Y63170000D01*
X19710000Y62300000D02*
X19710000Y60850000D01*
X20580000Y63170000D02*
X19710000Y62300000D01*
X16250000Y45530000D02*
X26140000Y45530000D01*
X26140000Y45530000D02*
X26865000Y46255000D01*
X26755000Y70805000D02*
X26755000Y63470000D01*
X26755000Y63470000D02*
X26755000Y63170000D01*
X26755000Y63170000D02*
X26755000Y62465000D01*
X26755000Y62465000D02*
X27840000Y61380000D01*
X27965000Y58795000D02*
X27965000Y61255000D01*
X27965000Y61255000D02*
X27840000Y61380000D01*
X6155000Y46425000D02*
X8855000Y46425000D01*
X8855000Y46425000D02*
X9750000Y45530000D01*
X25500000Y4800000D02*
X25500000Y5450000D01*
X25500000Y5450000D02*
X26920000Y6870000D01*
X26920000Y6870000D02*
X29770000Y6870000D01*
X29770000Y6870000D02*
X29900000Y7000000D01*
X29900000Y7000000D02*
X29900000Y27120000D01*
X29900000Y27120000D02*
X29900000Y27090000D01*
X29900000Y27090000D02*
X29900000Y27120000D01*
X22905000Y23205000D02*
X24305000Y23205000D01*
X32790000Y53970000D02*
X27965000Y58795000D01*
X27965000Y58795000D02*
X27905000Y58855000D01*
X32790000Y30010000D02*
X32790000Y53970000D01*
X27310000Y24530000D02*
X29900000Y27120000D01*
X29900000Y27120000D02*
X32790000Y30010000D01*
X25630000Y24530000D02*
X27310000Y24530000D01*
X24305000Y23205000D02*
X25630000Y24530000D01*
X10690000Y75940000D02*
X18830000Y75940000D01*
X18830000Y75940000D02*
X21675000Y73095000D01*
X6740000Y70540000D02*
X7770000Y70540000D01*
X10690000Y73460000D02*
X10690000Y75940000D01*
X7770000Y70540000D02*
X10690000Y73460000D01*
X26865000Y46255000D02*
X26865000Y57815000D01*
X26865000Y57815000D02*
X27905000Y58855000D01*
X6740000Y70540000D02*
X6640000Y70540000D01*
X21675000Y73095000D02*
X24465000Y73095000D01*
X24465000Y73095000D02*
X26755000Y70805000D01*
X29075000Y46255000D02*
X26865000Y46255000D01*
X6935000Y24745000D02*
X6935000Y24805000D01*
X6935000Y24805000D02*
X4475000Y27265000D01*
X4475000Y27265000D02*
X4475000Y29575000D01*
X15285000Y25745000D02*
X10285000Y25745000D01*
X9285000Y24745000D02*
X6935000Y24745000D01*
X10285000Y25745000D02*
X9285000Y24745000D01*
X6155000Y43885000D02*
X4365000Y43885000D01*
X4175000Y43695000D02*
X4175000Y29875000D01*
X4365000Y43885000D02*
X4175000Y43695000D01*
X4175000Y29875000D02*
X4475000Y29575000D01*
X6155000Y46425000D02*
X6155000Y43885000D01*
X6305000Y46275000D02*
X6155000Y46425000D01*
X21675000Y66995000D02*
X15035000Y72905000D01*
X15035000Y72905000D02*
X15190000Y73060000D01*
X26975000Y25805000D02*
X26975000Y26005000D01*
X26975000Y26005000D02*
X31365000Y30395000D01*
X31365000Y46505000D02*
X29075000Y48795000D01*
X31365000Y30395000D02*
X31365000Y46505000D01*
X26975000Y25805000D02*
X22965000Y25805000D01*
X22965000Y25805000D02*
X22905000Y25745000D01*
X10985000Y32155000D02*
X9555000Y32155000D01*
X9555000Y32155000D02*
X6975000Y29575000D01*
X15285000Y30825000D02*
X12315000Y30825000D01*
X12315000Y30825000D02*
X10985000Y32155000D01*
X10985000Y27275000D02*
X6965000Y27275000D01*
X6965000Y27275000D02*
X6935000Y27245000D01*
X15285000Y28285000D02*
X11995000Y28285000D01*
X11995000Y28285000D02*
X10985000Y27275000D01*
X4030000Y51090000D02*
X4030000Y55662081D01*
X4030000Y55662081D02*
X4952919Y56585000D01*
X6155000Y48965000D02*
X4030000Y51090000D01*
X6155000Y56585000D02*
X4952919Y56585000D01*
X4952919Y56585000D02*
X4857919Y56490000D01*
X15630000Y55540000D02*
X12400000Y55540000D01*
X12400000Y55540000D02*
X10550000Y57390000D01*
X15630000Y55540000D02*
X19400000Y55540000D01*
X19400000Y55540000D02*
X19710000Y55850000D01*
X25340000Y61380000D02*
X23420000Y61380000D01*
X19640000Y56120000D02*
X19670000Y55810000D01*
X23420000Y61380000D02*
X19640000Y56120000D01*
X19670000Y55810000D02*
X19710000Y55850000D01*
X6155000Y56585000D02*
X9745000Y56585000D01*
X9745000Y56585000D02*
X10550000Y57390000D01*
X10550000Y62920000D02*
X10550000Y57390000D01*
X25340000Y61380000D02*
X25340000Y61250000D01*
X9750000Y50030000D02*
X9750000Y53920000D01*
X9625000Y54045000D02*
X6155000Y54045000D01*
X9750000Y53920000D02*
X9625000Y54045000D01*
X10660000Y4720000D02*
X10660000Y4740000D01*
X10660000Y4740000D02*
X9050000Y6350000D01*
X9050000Y6350000D02*
X9050000Y20465000D01*
X28040000Y4800000D02*
X28040000Y4580000D01*
X28040000Y4580000D02*
X26080000Y2620000D01*
X26080000Y2620000D02*
X12760000Y2620000D01*
X12760000Y2620000D02*
X10660000Y4720000D01*
X18280000Y4720000D02*
X22740000Y4580000D01*
X22740000Y4580000D02*
X22960000Y4800000D01*
X15285000Y7965000D02*
X15285000Y7715000D01*
X15285000Y7715000D02*
X18280000Y4720000D01*
X10635000Y62835000D02*
X10550000Y62920000D01*
X10550000Y65460000D02*
X10550000Y62920000D01*
X10460000Y65370000D02*
X10550000Y65460000D01*
X10460000Y65370000D02*
X10550000Y65460000D01*
X6345000Y48775000D02*
X6155000Y48965000D01*
X22905000Y28285000D02*
X20365000Y28285000D01*
X20365000Y28285000D02*
X15285000Y23205000D01*
X11775000Y20465000D02*
X9050000Y20465000D01*
X9050000Y20465000D02*
X8285000Y20465000D01*
X2745000Y26005000D02*
X2745000Y45555000D01*
X4660000Y24090000D02*
X2745000Y26005000D01*
X2745000Y45555000D02*
X6155000Y48965000D01*
X8285000Y20465000D02*
X4660000Y24090000D01*
X15285000Y23205000D02*
X14515000Y23205000D01*
X14515000Y23205000D02*
X11775000Y20465000D01*
X6740000Y68000000D02*
X6740000Y66730000D01*
X6740000Y66730000D02*
X5470000Y65460000D01*
X5470000Y65460000D02*
X5470000Y62920000D01*
X29075000Y31015000D02*
X25365000Y31015000D01*
X25365000Y31015000D02*
X25175000Y30825000D01*
X25175000Y30825000D02*
X22905000Y30825000D01*
X29075000Y36095000D02*
X25365000Y36095000D01*
X25365000Y36095000D02*
X25175000Y35905000D01*
X25175000Y35905000D02*
X22905000Y35905000D01*
X27250000Y21730000D02*
X23795000Y19775000D01*
X23795000Y19775000D02*
X22905000Y20665000D01*
X27250000Y19190000D02*
X23795000Y17235000D01*
X23795000Y17235000D02*
X22905000Y18125000D01*
X27250000Y16650000D02*
X23795000Y14695000D01*
X23795000Y14695000D02*
X22905000Y15585000D01*
X27250000Y14110000D02*
X23795000Y12155000D01*
X23795000Y12155000D02*
X22905000Y13045000D01*
X27250000Y11570000D02*
X23795000Y9615000D01*
X23795000Y9615000D02*
X22905000Y10505000D01*
X27250000Y9030000D02*
X23795000Y7075000D01*
X23795000Y7075000D02*
X22905000Y7965000D01*
X11460000Y8230000D02*
X11850000Y8230000D01*
X11850000Y8230000D02*
X14125000Y10505000D01*
X14125000Y10505000D02*
X15285000Y10505000D01*
X15285000Y13045000D02*
X14915000Y13045000D01*
X14915000Y13045000D02*
X12835000Y10965000D01*
X12835000Y10965000D02*
X11460000Y10770000D01*
X15285000Y15585000D02*
X14765000Y15585000D01*
X14765000Y15585000D02*
X12685000Y13505000D01*
X12685000Y13505000D02*
X11460000Y13310000D01*
X15285000Y18125000D02*
X15155000Y18125000D01*
X15155000Y18125000D02*
X13075000Y16045000D01*
X13075000Y16045000D02*
X11460000Y15850000D01*
X15285000Y20665000D02*
X15285000Y20655000D01*
X15285000Y20655000D02*
X13215000Y18585000D01*
X13215000Y18585000D02*
X11460000Y18390000D01*
X15285000Y33365000D02*
X12735000Y33365000D01*
X7685000Y34085000D02*
X6165000Y32565000D01*
X12015000Y34085000D02*
X7685000Y34085000D01*
X12735000Y33365000D02*
X12015000Y34085000D01*
X15285000Y35905000D02*
X6965000Y35905000D01*
X6965000Y35905000D02*
X6165000Y35105000D01*
X15285000Y38445000D02*
X6965000Y38445000D01*
X6965000Y38445000D02*
X6165000Y37645000D01*
X29075000Y43715000D02*
X22985000Y43715000D01*
X20255000Y40985000D02*
X15285000Y40985000D01*
X22985000Y43715000D02*
X20255000Y40985000D01*
X22905000Y33365000D02*
X25095000Y33365000D01*
X25095000Y33365000D02*
X25285000Y33555000D01*
X25285000Y33555000D02*
X29075000Y33555000D01*
X29075000Y41175000D02*
X23095000Y41175000D01*
X23095000Y41175000D02*
X22905000Y40985000D01*
X29075000Y38635000D02*
X23095000Y38635000D01*
X23095000Y38635000D02*
X22905000Y38445000D01*
X15630000Y60620000D02*
X15630000Y65000000D01*
X15630000Y65000000D02*
X15190000Y65440000D01*
X11050000Y68560000D02*
X14850000Y68440000D01*
X15190000Y68100000D02*
X15190000Y65440000D01*
X14850000Y68440000D02*
X15190000Y68100000D01*
M02*
