G04 #@! TF.FileFunction,Profile,NP*
%FSLAX46Y46*%
G04 Gerber Fmt 4.6, Leading zero omitted, Abs format (unit mm)*
G04 Created by KiCad (PCBNEW 4.0.7) date 12/07/17 21:08:05*
%MOMM*%
%LPD*%
G01*
G04 APERTURE LIST*
%ADD10C,0.100000*%
G04 APERTURE END LIST*
D10*
X30632400Y1574800D02*
X20624800Y1371600D01*
X9144000Y1574800D02*
X19304000Y1371600D01*
X8585200Y78790800D02*
X8128000Y75793600D01*
X30429200Y82550000D02*
X21844000Y82550000D01*
X3260000Y71240000D02*
X8128000Y75793600D01*
X2280000Y48600000D02*
X3270000Y71250000D01*
X965200Y36779200D02*
X2280000Y48610000D01*
X1016000Y26162000D02*
X1066800Y35102800D01*
X7366000Y19304000D02*
X1016000Y26162000D01*
X7162800Y5994400D02*
X9144000Y1625600D01*
X7366000Y19253200D02*
X7162800Y5994400D01*
X30632400Y1574800D02*
X32054800Y3505200D01*
X35102800Y30886400D02*
X35102800Y43230800D01*
X31902400Y26517600D02*
X35102800Y30886400D01*
X32054800Y3454400D02*
X31902400Y26517600D01*
X12801600Y78740000D02*
X8636000Y78790800D01*
X13817600Y82499200D02*
X12801600Y78740000D01*
X21336000Y82550000D02*
X13817600Y82499200D01*
X35102800Y53898800D02*
X35102800Y45110400D01*
X30378400Y82499200D02*
X35102800Y53898800D01*
M02*
